
<svg width="40" height="40" viewBox="0 0 40 40" fill="none" xmlns="http://www.w3.org/2000/svg">
<g filter="url(#filter0_d_4_24)">
<path d="M14.2985 10.1935C12.4208 11.7895 11.733 14.6997 13.3535 17.0342C14.8763 19.2239 16.7774 21.1244 18.9675 22.6465C21.302 24.267 24.2123 23.5793 25.8083 21.7015L25.8258 21.7102C27.864 22.655 30.0276 23.3016 32.25 23.63V28.25H32.243C18.2885 28.2693 7.73427 17.5943 7.75002 3.757V3.75H12.37V3.75175C12.699 5.97425 13.3465 8.13725 14.2898 10.1742L14.2985 10.1918V10.1935ZM32.25 31.75H34C34.4642 31.75 34.9093 31.5656 35.2375 31.2374C35.5656 30.9093 35.75 30.4641 35.75 30V22.1215C35.7504 21.7017 35.5998 21.2957 35.3258 20.9777C35.0518 20.6596 34.6725 20.4507 34.2573 20.389L32.7628 20.1685C30.8722 19.8879 29.0317 19.3375 27.2975 18.534L25.9798 17.9233C25.6097 17.7518 25.1915 17.715 24.7972 17.8192C24.4029 17.9233 24.0574 18.1619 23.8203 18.4937L23.2235 19.3285C22.7003 20.0618 21.701 20.284 20.9643 19.7712C19.1171 18.4872 17.5135 16.8842 16.2288 15.0375C15.716 14.299 15.94 13.2998 16.6715 12.7783L17.5063 12.1833C17.8385 11.9461 18.0774 11.6003 18.1815 11.2056C18.2857 10.8109 18.2487 10.3922 18.0768 10.022L17.4643 8.7025C16.6616 6.96815 16.1118 5.12768 15.8315 3.23725L15.6093 1.74275C15.5476 1.3275 15.3386 0.948266 15.0206 0.674236C14.7025 0.400205 14.2966 0.249638 13.8768 0.250001H6.00002C5.53589 0.250001 5.09077 0.434375 4.76258 0.762564C4.43439 1.09075 4.25002 1.53587 4.25002 2V3.75175C4.23252 19.514 16.3425 31.7728 32.2483 31.75H32.25Z" fill="#9747FF"/>
</g>
<defs>
<filter id="filter0_d_4_24" x="0.25" y="0.25" width="39.5" height="39.5" filterUnits="userSpaceOnUse" color-interpolation-filters="sRGB">
<feFlood flood-opacity="0" result="BackgroundImageFix"/>
<feColorMatrix in="SourceAlpha" type="matrix" values="0 0 0 0 0 0 0 0 0 0 0 0 0 0 0 0 0 0 127 0" result="hardAlpha"/>
<feOffset dy="4"/>
<feGaussianBlur stdDeviation="2"/>
<feComposite in2="hardAlpha" operator="out"/>
<feColorMatrix type="matrix" values="0 0 0 0 0 0 0 0 0 0 0 0 0 0 0 0 0 0 0.25 0"/>
<feBlend mode="normal" in2="BackgroundImageFix" result="effect1_dropShadow_4_24"/>
<feBlend mode="normal" in="SourceGraphic" in2="effect1_dropShadow_4_24" result="shape"/>
</filter>
</defs>
</svg>
