
<svg  width="40" height="40" viewBox="0 0 38 38" fill="none" xmlns="http://www.w3.org/2000/svg">
<path d="M12.375 7.125C12.375 5.36794 13.073 3.68285 14.3154 2.44042C15.5578 1.19799 17.2429 0.5 19 0.5C20.7571 0.5 22.4422 1.19799 23.6846 2.44042C24.927 3.68285 25.625 5.36794 25.625 7.125V19C25.625 19.3911 25.5147 19.881 25.3268 20.4197C25.1411 20.9521 24.8908 21.501 24.6361 22.0006C24.382 22.499 24.1273 22.941 23.9359 23.2586C23.8404 23.4172 23.761 23.5441 23.7058 23.631C23.6952 23.6477 23.6854 23.663 23.6767 23.6767C23.663 23.6854 23.6477 23.6952 23.631 23.7058C23.5441 23.761 23.4172 23.8404 23.2586 23.9359C22.941 24.1273 22.499 24.382 22.0006 24.6361C21.501 24.8908 20.9521 25.1411 20.4197 25.3268C19.881 25.5147 19.3911 25.625 19 25.625C17.2429 25.625 15.5578 24.927 14.3154 23.6846C13.073 22.4422 12.375 20.7571 12.375 19V7.125Z" fill="white" stroke="black"/>
<path d="M8.3125 15.4375C8.62744 15.4375 8.92949 15.5626 9.15219 15.7853C9.37489 16.008 9.5 16.3101 9.5 16.625V19C9.5 21.5196 10.5009 23.9359 12.2825 25.7175C14.0641 27.4991 16.4804 28.5 19 28.5C21.5196 28.5 23.9359 27.4991 25.7175 25.7175C27.4991 23.9359 28.5 21.5196 28.5 19V16.625C28.5 16.3101 28.6251 16.008 28.8478 15.7853C29.0705 15.5626 29.3726 15.4375 29.6875 15.4375C30.0024 15.4375 30.3045 15.5626 30.5272 15.7853C30.7499 16.008 30.875 16.3101 30.875 16.625V19C30.875 21.9439 29.7816 24.7828 27.8068 26.9661C25.832 29.1493 23.1166 30.5212 20.1875 30.8156V35.625H27.3125C27.6274 35.625 27.9295 35.7501 28.1522 35.9728C28.3749 36.1955 28.5 36.4976 28.5 36.8125C28.5 37.1274 28.3749 37.4295 28.1522 37.6522C27.9295 37.8749 27.6274 38 27.3125 38H10.6875C10.3726 38 10.0705 37.8749 9.84781 37.6522C9.62511 37.4295 9.5 37.1274 9.5 36.8125C9.5 36.4976 9.62511 36.1955 9.84781 35.9728C10.0705 35.7501 10.3726 35.625 10.6875 35.625H17.8125V30.8156C14.8834 30.5212 12.168 29.1493 10.1932 26.9661C8.21841 24.7828 7.12496 21.9439 7.125 19V16.625C7.125 16.3101 7.25011 16.008 7.47281 15.7853C7.69551 15.5626 7.99756 15.4375 8.3125 15.4375Z" fill="white"/>
</svg>
